<?xml version="1.0" encoding="UTF-8"?>
<svg xmlns="http://www.w3.org/2000/svg" xmlns:xlink="http://www.w3.org/1999/xlink" version="1.1" id="Layer_1" x="0px" y="0px" width="401.186px" height="289.044px" viewBox="0 0 401.186 289.044" xml:space="preserve">
<g>
	<defs>
		<rect id="SVGID_1_" width="401.186" height="289.044"></rect>
	</defs>
	<clipPath id="SVGID_2_">
		<use xlink:href="#SVGID_1_" overflow="visible"></use>
	</clipPath>
	<path clip-path="url(#SVGID_2_)" fill="#1178BE" d="M123.828,83.765c-10.398-6.414-22.112-9.621-35.131-9.621   c-22.741,0-39.168,7.972-49.272,23.906l-0.05-20.262H0v211.256h40.525l-0.185-74.781c4.856,6.997,11.27,10.607,19.242,14.398   c7.969,3.79,16.91,5.685,26.823,5.685c13.602,0,25.847-3.645,36.735-10.933c10.884-7.289,19.287-16.91,25.218-28.863   c5.929-11.953,9.078-27.85,9.078-42.236c0-15.545-3.016-30.637-9.038-42.59C142.373,97.77,134.223,90.178,123.828,83.765    M105.978,182.173c-7.289,7.972-16.764,11.953-28.426,11.953c-11.662,0-21.137-3.981-28.426-11.953   c-7.289-7.966-10.933-18.17-10.933-30.613c0-12.629,3.69-22.931,11.079-30.904c7.386-7.965,16.809-11.953,28.28-11.953   c11.468,0,20.891,3.988,28.28,11.953c7.386,7.973,11.079,18.274,11.079,30.904C116.911,164.003,113.267,174.207,105.978,182.173"></path>
	<rect x="355.424" y="77.788" clip-path="url(#SVGID_2_)" fill="#1178BE" width="40.525" height="151.825"></rect>
	<path clip-path="url(#SVGID_2_)" fill="#1178BE" d="M375.646,0c-14.104,0-25.539,11.477-25.539,25.63   c0,14.156,11.435,25.634,25.539,25.634c14.104,0,25.539-11.478,25.539-25.634C401.186,11.477,389.75,0,375.646,0"></path>
	<path clip-path="url(#SVGID_2_)" fill="#1178BE" d="M303.161,83.765c-10.399-6.414-22.113-9.621-35.131-9.621   c-22.741,0-39.168,7.972-49.272,23.906l-0.05-20.262h-39.375v211.256h40.525l-0.186-74.781   c4.856,6.997,11.271,10.607,19.242,14.398c7.969,3.79,16.91,5.685,26.823,5.685c13.602,0,25.846-3.645,36.733-10.933   c10.886-7.289,19.288-16.91,25.22-28.863c5.929-11.953,9.076-27.85,9.076-42.236c0-15.545-3.016-30.637-9.036-42.59   C321.706,97.77,313.556,90.178,303.161,83.765 M285.311,182.173c-7.288,7.972-16.765,11.953-28.427,11.953   c-11.661,0-21.136-3.981-28.425-11.953c-7.289-7.966-10.933-18.17-10.933-30.613c0-12.629,3.689-22.931,11.079-30.904   c7.386-7.965,16.809-11.953,28.278-11.953c11.468,0,20.893,3.988,28.281,11.953c7.385,7.973,11.079,18.274,11.079,30.904   C296.244,164.003,292.599,174.207,285.311,182.173"></path>
</g>
</svg>
